<?xml version="1.0" encoding="utf-8"?>
<!-- Generator: Adobe Illustrator 24.1.0, SVG Export Plug-In . SVG Version: 6.00 Build 0)  -->
<svg version="1.1" id="Livello_1" xmlns="http://www.w3.org/2000/svg" xmlns:xlink="http://www.w3.org/1999/xlink" x="0px" y="0px"
	 viewBox="0 0 788.1 77.8" style="enable-background:new 0 0 788.1 77.8;" xml:space="preserve">
<style type="text/css">
	.st0{fill:#FFFFFF;}
</style>
<path class="st0" d="M78.1,52.4L58.3,17.5h-2.8L38.8,48.1c-3.6,6.6-6.9,7.2-10.8,7.9v1.6h19.4V56h-4.3L40,50.2l3.7-6.9h17.2l5.2,9.1
	l-1.8,3.5h-7.1v1.6H87v-1.6C83.6,55.9,80.1,55.9,78.1,52.4 M44.7,41.7l7-13.2c0.2-0.3,0.4-0.6,0.8-0.6c0.4,0,0.6,0.3,0.7,0.6
	L60,41.7H44.7z"/>
<path class="st0" d="M162.2,49.8l-3.6-7.8c-2.7-0.2-11.3-1.3-11.3-3.5c0-1.3,0.6-1.5,5.9-2.4c5.5-0.8,13.1-1.8,13.1-8.7
	c0-9.2-13.6-9.2-18.3-9.2h-36.2v1.6h5.8l3.6,3.7v28.7l-3.4,3.7h-6v1.6h29.5v-1.6H136l-3.4-3.4V37.9c11,0,12.1,0,19.2,19.7h18.7v-1.9
	C165.9,55.3,164.5,54.6,162.2,49.8 M138.1,36.3h-5.4V23.2l3.3-3.3h8.5c1.9,0,9.1,0.8,9.1,8C153.6,33.4,149,36.3,138.1,36.3"/>
<polygon class="st0" points="240,55.9 224.2,55.9 220.7,52.2 220.7,38.9 228.8,38.9 234.7,48.3 236.3,48.3 236.3,28.1 234.7,28.1 
	229,37.3 220.7,37.3 220.7,23.7 224.2,19.9 241.5,19.9 249.1,32.5 250.8,32.5 250.8,18.2 198.3,18.2 198.3,19.9 205.5,19.9 
	208.9,23.6 208.9,52.2 205.5,55.9 198.3,55.9 198.3,57.6 251.9,57.6 252.7,40.3 251.1,40.3 "/>
<path class="st0" d="M329.5,52.4l-19.8-34.8H307l-16.7,30.5c-3.6,6.6-6.9,7.2-10.8,7.9v1.6h19.4V56h-4.3l-3.2-5.7l3.7-6.9h17.2
	l5.2,9.1l-1.8,3.5h-7.1v1.6h29.8V56C335,55.9,331.5,55.9,329.5,52.4 M296.1,41.7l7-13.2c0.2-0.3,0.4-0.6,0.8-0.6s0.6,0.3,0.7,0.6
	l6.8,13.2H296.1z"/>
<path class="st0" d="M394.6,18.2h-32.5v1.6h7.8l3.5,3.8v28.7l-3.7,3.6h-7.6v1.6h32.5c17.2,0,28-8.6,28-19.6
	C422.5,29.9,417.8,18.2,394.6,18.2 M394.4,55.9h-6.7l-3.5-3.8V23.7l3.8-3.8h6.4c14.7,0,15.4,10.2,15.4,18.1
	C409.7,45.9,409,55.9,394.4,55.9"/>
<path class="st0" d="M478.5,17c-12.8,0-26.6,7.4-26.6,20.9s13.8,20.9,26.6,20.9c13.1,0,26.6-8,26.6-20.9C505.2,25,491.6,17,478.5,17
	 M478.5,57.2c-14.3,0-14.3-12.2-14.3-19.3s0-19.3,14.3-19.3s14.3,12.3,14.3,19.3C492.9,44.9,492.9,57.2,478.5,57.2"/>
<path class="st0" d="M561.6,57.2c-15.5,0-15.5-14.1-15.5-19.4c0-4,0-19.2,14.9-19.2c7,0,15.7,3.8,19.1,16h1.6V17h-1.6l-5.9,4.5
	c-3.7-2.4-7-4.5-15-4.5c-11.9,0-25.3,8.4-25.3,21.4c0,10.5,10.3,20.4,26.3,20.4c17.9,0,22.7-15.1,23.4-16.8H582
	C577.4,54.3,566.6,57.2,561.6,57.2"/>
<polygon class="st0" points="649.9,31.3 667.5,19.9 672.2,19.9 672.2,18.2 645.6,18.2 645.6,19.9 649.1,19.9 654.8,25.8 631.9,40.5 
	631.9,22.8 635.2,19.9 639,19.9 639,18.2 611.1,18.2 611.1,19.9 616.9,19.9 620.5,23.6 620.5,52.3 617.1,55.9 611.1,55.9 
	611.1,57.6 639,57.6 639,55.9 635.2,55.9 631.9,52.6 631.9,42.8 641.1,37.1 653.2,52.4 651.5,55.9 645.9,55.9 645.9,57.6 
	673.4,57.6 673.4,55.9 669.4,55.9 "/>
<path class="st0" d="M722.9,32c-8.2-0.8-14-1.3-14-6.8c0-3.4,3.3-6.6,11.3-6.6c12.9,0,17.5,5.7,20,10.8h1.2V17.3h-1.2l-4.1,3.9
	c-3.4-1.8-7.5-4.2-15.9-4.2c-12.9,0-17.4,7-17.4,12.8c0,11.7,14.2,12.9,18.1,13.2c15,1.2,18.3,1.5,18.3,6.6s-6.1,7.6-11.8,7.6
	c-5.2,0-16.2-1-22.3-12.5h-1.2v14.1h1.2l5-4.4c3.1,1.6,8.3,4.4,16.6,4.4c3,0,17.4,0,17.4-12.9C744.1,34,732.7,32.9,722.9,32"/>
</svg>
